<?xml version="1.0" encoding="UTF-8" standalone="no"?>
<!-- Created with Inkscape (http://www.inkscape.org/) -->

<svg
   xmlns:dc="http://purl.org/dc/elements/1.1/"
   xmlns:cc="http://creativecommons.org/ns#"
   xmlns:rdf="http://www.w3.org/1999/02/22-rdf-syntax-ns#"
   xmlns:svg="http://www.w3.org/2000/svg"
   xmlns="http://www.w3.org/2000/svg"
   xmlns:sodipodi="http://sodipodi.sourceforge.net/DTD/sodipodi-0.dtd"
   xmlns:inkscape="http://www.inkscape.org/namespaces/inkscape"
   width="744.09448819"
   height="1052.3622047"
   id="svg2"
   version="1.1"
   inkscape:version="0.48.4 r9939"
   sodipodi:docname="New document 1">
  <defs
     id="defs4" />
  <sodipodi:namedview
     id="base"
     pagecolor="#ffffff"
     bordercolor="#666666"
     borderopacity="1.0"
     inkscape:pageopacity="0.0"
     inkscape:pageshadow="2"
     inkscape:zoom="1.979899"
     inkscape:cx="105.41772"
     inkscape:cy="907.40628"
     inkscape:document-units="px"
     inkscape:current-layer="layer1"
     showgrid="false"
     inkscape:snap-global="false"
     showguides="true"
     inkscape:guide-bbox="true"
     inkscape:window-width="1366"
     inkscape:window-height="747"
     inkscape:window-x="0"
     inkscape:window-y="21"
     inkscape:window-maximized="1">
    <inkscape:grid
       type="xygrid"
       id="grid3757" />
  </sodipodi:namedview>
  <metadata
     id="metadata7">
    <rdf:RDF>
      <cc:Work
         rdf:about="">
        <dc:format>image/svg+xml</dc:format>
        <dc:type
           rdf:resource="http://purl.org/dc/dcmitype/StillImage" />
        <dc:title></dc:title>
      </cc:Work>
    </rdf:RDF>
  </metadata>
  <g
     inkscape:label="Layer 1"
     inkscape:groupmode="layer"
     id="layer1">
    <rect
       style="fill:#000000;fill-opacity:1"
       id="rect3857-1-5"
       width="29.186739"
       height="42.426407"
       x="41.906631"
       y="160.14899"
       rx="12.930836"
       ry="9.8638372" />
    <rect
       style="fill:#000000;fill-opacity:1"
       id="rect3857-1"
       width="29.186739"
       height="42.426407"
       x="175.26752"
       y="158.70934"
       rx="12.930836"
       ry="9.8638372" />
    <rect
       style="fill:#000000;fill-opacity:1;fill-rule:evenodd;stroke:#ffffff;stroke-width:3.29900002;stroke-linecap:butt;stroke-linejoin:miter;stroke-miterlimit:4;stroke-opacity:1;stroke-dasharray:none"
       id="rect2985"
       width="173.29146"
       height="158.13918"
       x="35.831619"
       y="27.371811"
       ry="29.701435"
       rx="43.941624" />
    <rect
       style="fill:#ffffff;fill-opacity:1"
       id="rect3755"
       width="129.29953"
       height="39.39595"
       x="59.060966"
       y="53.18428"
       ry="10.166696"
       rx="7.0710678" />
    <path
       transform="matrix(1.2828427,0,0,1.2828427,-292.21984,-95.102645)"
       sodipodi:type="arc"
       style="fill:#ffffff;fill-opacity:1"
       id="path3759-2"
       sodipodi:cx="277.5"
       sodipodi:cy="194.86218"
       sodipodi:rx="12.5"
       sodipodi:ry="12.5"
       d="m 290,194.86218 a 12.5,12.5 0 1 1 -25,0 12.5,12.5 0 1 1 25,0 z" />
    <path
       sodipodi:type="arc"
       style="fill:#ffffff;fill-opacity:1"
       id="path3759-4"
       sodipodi:cx="277.5"
       sodipodi:cy="194.86218"
       sodipodi:rx="12.5"
       sodipodi:ry="12.5"
       d="m 290,194.86218 a 12.5,12.5 0 1 1 -25,0 12.5,12.5 0 1 1 25,0 z"
       transform="translate(-154.52788,-87.914955)" />
    <path
       sodipodi:type="arc"
       style="fill:#ffffff;fill-opacity:1"
       id="path3759-4-4"
       sodipodi:cx="277.5"
       sodipodi:cy="194.86218"
       sodipodi:rx="12.5"
       sodipodi:ry="12.5"
       d="m 290,194.86218 a 12.5,12.5 0 1 1 -25,0 12.5,12.5 0 1 1 25,0 z"
       transform="translate(-154.29565,-58.64084)" />
    <path
       sodipodi:type="arc"
       style="fill:#ffffff;fill-opacity:1"
       id="path3759-4-4-8"
       sodipodi:cx="277.5"
       sodipodi:cy="194.86218"
       sodipodi:rx="12.5"
       sodipodi:ry="12.5"
       d="m 290,194.86218 a 12.5,12.5 0 1 1 -25,0 12.5,12.5 0 1 1 25,0 z"
       transform="translate(-154.52789,-29.527891)" />
    <path
       transform="matrix(1.2828427,0,0,1.2828427,-176.21466,-92.747535)"
       sodipodi:type="arc"
       style="fill:#ffffff;fill-opacity:1"
       id="path3759-2-0"
       sodipodi:cx="277.5"
       sodipodi:cy="194.86218"
       sodipodi:rx="12.5"
       sodipodi:ry="12.5"
       d="m 290,194.86218 a 12.5,12.5 0 1 1 -25,0 12.5,12.5 0 1 1 25,0 z" />
  </g>
</svg>
