<svg xmlns="http://www.w3.org/2000/svg" xmlns:xlink="http://www.w3.org/1999/xlink" version="1.1" x="0px" y="0px" viewBox="0 0 100 100" enable-background="new 0 0 100 100" xml:space="preserve"><g><polygon fill="#000000" points="10.315,9.794 9.173,12.314 11.485,12.314 10.33,9.794  "></polygon><path fill="#000000" d="M10.331,0C4.635,0,0,4.652,0,10.37c0,7.03,9.331,18.985,9.728,19.49c0.156,0.197,0.393,0.314,0.642,0.314   h0.003c0.251-0.002,0.487-0.118,0.642-0.316c0.395-0.506,9.646-12.459,9.646-19.488C20.661,4.652,16.026,0,10.331,0z    M15.167,15.979H13.48c-0.275,0-0.396-0.091-0.533-0.382L12.4,14.391H8.261l-0.548,1.22c-0.075,0.185-0.244,0.367-0.548,0.367   H5.492c-0.228,0-0.35-0.198-0.258-0.396l4.76-10.275c0.047-0.092,0.153-0.167,0.259-0.167h0.152c0.107,0,0.212,0.076,0.258,0.167   l4.763,10.275C15.517,15.781,15.396,15.979,15.167,15.979z"></path></g><g><path fill="#000000" d="M82.284,33.955c-9.769,0-17.716,7.975-17.716,17.779c0,12.056,16,32.557,16.682,33.425   c0.268,0.339,0.673,0.536,1.102,0.536c0,0,0.002,0,0.004,0c0.432-0.002,0.838-0.201,1.104-0.541   C84.131,84.288,100,63.789,100,51.734C100,41.929,92.053,33.955,82.284,33.955z M82.926,60.996h-6.472   c-0.286,0-0.494-0.236-0.494-0.497V43.166c0-0.266,0.208-0.498,0.494-0.498h6.077c3.08,0,5.611,2.12,5.611,4.867   c0,2.018-1.804,3.484-3.027,4.138c1.384,0.575,3.496,1.86,3.496,4.271C88.611,58.876,86.027,60.996,82.926,60.996z"></path><path fill="#000000" d="M82.141,53.509h-2.113v3.744h2.377c1.016,0,1.877-0.838,1.877-1.911   C84.279,54.293,83.159,53.509,82.141,53.509z"></path><path fill="#000000" d="M83.889,48.218c0-1.049-0.832-1.781-1.826-1.781h-2.035v3.667h2.035   C83.057,50.104,83.889,49.265,83.889,48.218z"></path></g><path fill="#000000" stroke="#231F20" stroke-width="9" stroke-linecap="round" stroke-miterlimit="10" d="M79.216,33.35"></path><path fill="#000000" d="M83.208,90.439l-57.87-31.104L38.75,52.29c1.303-0.753,2.072-2.177,1.991-3.684  c-0.081-1.506-0.998-2.84-2.374-3.45c0,0-23.941-10.57-25.657-11.232c-1.216-0.469-2.897-0.429-3.377-0.326  c-1.754,0.379-3.011,1.392-3.011,2.579c0,1.69,3.166,2.834,3.551,3.004l22.823,9.764l-16.834,6.92  c-1.274,0.736-2.042,2.119-1.996,3.595c0.046,1.478,0.897,2.808,2.216,3.464l58.51,34.463c1.996,0.813,4.109,2.469,7.618,2.469  c0.304,0,0.599-0.017,0.892-0.037c0.033,0,0.068,0.012,0.104,0.012c0.391,0,0.773-0.062,1.146-0.172  c2.881-0.549,4.972-2.17,4.972-4.086C89.322,93.393,86.707,92.066,83.208,90.439z M10.487,37.429c-1.166,0-2.109-0.569-2.109-1.27  c0-0.702,0.944-1.271,2.109-1.271c1.164,0,2.108,0.569,2.108,1.271C12.595,36.86,11.651,37.429,10.487,37.429z M82.521,97.725  c-1.974,0-3.573-0.964-3.573-2.151c0-1.188,1.601-2.152,3.573-2.152c1.976,0,3.574,0.965,3.574,2.152  C86.098,96.761,84.497,97.725,82.521,97.725z"></path></svg>