<svg xmlns="http://www.w3.org/2000/svg" xmlns:xlink="http://www.w3.org/1999/xlink" version="1.0" x="0px" y="0px" viewBox="0 0 100 125" enable-background="new 0 0 100 100" xml:space="preserve"><path d="M54.41,76.741c0,0-7.457-0.473-9.947-0.631c-8.16-0.518-8.986-1.33-10.331-9.946c-0.595-3.805-2.144-15.26-2.144-15.26  c-0.412-3.455,4.583-4.279,5.087-0.738c0,0,1.421,10.967,2.027,14.6c0.817,4.909,1.509,5.758,6.477,6.073l9.126,0.579  C58.3,71.645,57.939,76.967,54.41,76.741z M62.434,61.74c-0.777-1.05-1.997-1.757-3.414-1.827c-1.461-0.141-2.924-0.282-4.387-0.423  c-0.956-0.092-1.912-0.184-2.869-0.276c-0.358-0.035-0.74-0.111-1.099-0.062l-1.349-5.793c-0.039-0.195-0.077-0.391-0.116-0.586  l1.154,0.604c0.597,0.313,1.272,0.443,1.942,0.382l8.846-0.843c1.909-0.182,3.309-1.877,3.127-3.786  c-0.183-1.908-1.885-3.307-3.786-3.127l-7.819,0.746l-6.453-4.385c-0.312-0.282-0.657-0.52-1.035-0.705c0,0-0.047-0.032-0.044-0.02  c-0.845-0.403-1.817-0.558-2.806-0.362c-1.041,0.207-2.003,0.789-2.68,1.602c-0.263,0.317-0.488,0.709-0.644,1.089  c-0.328,0.798-0.394,1.771-0.227,2.612c0.293,1.483,0.586,2.965,0.881,4.448c0.395,1.997,0.79,3.994,1.185,5.991v0  c0,0,0.921,7.161,1.879,8.867c0.045,0.082,0.1,0.165,0.172,0.251c1.001,1.204,2.021,2.127,3.68,2.207l11.717,0.57l7.034,11.982  c0.64,0.676,1.487,1.036,2.349,1.078c0.913,0.044,1.842-0.27,2.558-0.949c1.39-1.319,1.449-3.516,0.129-4.907L62.434,61.74z   M74.281,44.337c-0.48-0.524-1.294-0.558-1.817-0.078l-12.53,11.497c-0.524,0.48-0.559,1.293-0.078,1.818  c0.238,0.26,0.559,0.399,0.885,0.415c0.331,0.016,0.668-0.094,0.932-0.337l12.53-11.497C74.727,45.674,74.762,44.86,74.281,44.337z   M34.054,31.336c0.269-0.183,0.538-0.366,0.806-0.55c0.722-0.492,1.443-0.985,2.164-1.477c1.608-1.098,3.216-2.195,4.825-3.292  c0.532-0.362,1.063-0.725,1.594-1.087c0.164-0.112,0.45-0.264,0.54-0.452c0.003-0.007,0.006-0.014,0.009-0.021  c0.069-0.172-0.005-0.387-0.044-0.556c-0.091-0.4-0.181-0.8-0.272-1.2c-0.097-0.428-0.198-0.854-0.286-1.283  c-0.096-0.464-0.367-0.475-0.747-0.234c-0.199,0.126-0.398,0.252-0.597,0.379c-0.558,0.355-1.117,0.709-1.675,1.063  c-1.552,0.985-3.104,1.971-4.655,2.956c-1.463,0.929-2.926,1.858-4.389,2.787c-0.452,0.287-0.906,0.572-1.357,0.862  c-0.276,0.176-0.538,0.39-0.133,0.64c0.171,0.105,0.35,0.2,0.524,0.299c0.422,0.241,0.845,0.483,1.268,0.724  c0.374,0.213,0.746,0.428,1.121,0.64C33.248,31.819,33.62,31.632,34.054,31.336z M34.709,32.49  c-0.137,0.094-0.237,0.125-0.215,0.298c0.001,0.008,0.003,0.018,0.003,0.026c0.016,0.141,0.017,0.284,0.027,0.427  c0.021,0.303,0.065,0.604,0.132,0.9c0.13,0.577,0.346,1.135,0.638,1.65c0.577,1.017,1.445,1.86,2.48,2.405  c0.846,0.445,1.795,0.683,2.751,0.69c3.286,0.023,6.111-2.785,6.107-6.074c0-0.524-0.075-1.047-0.217-1.551  c-0.187-0.661-0.492-1.287-0.888-1.847c-0.198-0.28-0.418-0.543-0.659-0.787c-0.12-0.122-0.247-0.238-0.375-0.351  c-0.146-0.13-0.031-0.189,0.102-0.276c0.11-0.072,0.221-0.144,0.331-0.217c0.221-0.144,0.442-0.29,0.663-0.434  c0.272-0.178,1.096-0.815,1.367-0.997c0.314-0.212,0.44-0.406,0.047-0.61c-0.208-0.108-0.415-0.218-0.622-0.327  c-0.435-0.229-0.699-0.495-1.16-0.184c-0.202,0.135-8.725,6.041-9.27,6.412C35.675,31.831,34.847,32.395,34.709,32.49z"/><text x="0" y="115" fill="#000000" font-size="5px" font-weight="bold" font-family="'Helvetica Neue', Helvetica, Arial-Unicode, Arial, Sans-serif">Created by Rémy Médard</text><text x="0" y="120" fill="#000000" font-size="5px" font-weight="bold" font-family="'Helvetica Neue', Helvetica, Arial-Unicode, Arial, Sans-serif">from the Noun Project</text></svg>