<svg xmlns="http://www.w3.org/2000/svg" xmlns:xlink="http://www.w3.org/1999/xlink" version="1.1" x="0px" y="0px" viewBox="0 0 141.73 177.1625" enable-background="new 0 0 141.73 141.73" xml:space="preserve"><g><path d="M131.235,51.585h-20.674c-0.687-3.048-3.41-5.333-6.662-5.333c-3.769,0-6.834,3.066-6.834,6.835   c0,2.215,1.064,4.182,2.703,5.431l-3.573,9.457c-0.33-0.06-0.66-0.08-1-0.08c-1.51,0-2.9,0.49-4.021,1.32l-12.407-9.594   c0.11-0.486,0.174-0.99,0.174-1.51c0-1.271-0.355-2.458-0.962-3.479l21.706-24.557c0.55-0.62,0.489-1.56-0.13-2.11   c-0.62-0.55-1.57-0.49-2.11,0.13l-21.521,24.35c-1.091-0.737-2.404-1.167-3.816-1.167c-1.128,0-2.19,0.279-3.129,0.766   l-1.258-0.975c0.548-0.983,0.863-2.112,0.863-3.315c0-3.768-3.066-6.834-6.834-6.834c-3.192,0-5.872,2.203-6.62,5.167H38.272   c-0.626-2.483-2.61-4.429-5.117-4.995V20.085c0-0.83-0.67-1.5-1.5-1.5s-1.5,0.67-1.5,1.5v21.004   c-2.51,0.564-4.496,2.511-5.123,4.996h-6.138c-0.82,0-1.5,0.67-1.5,1.5c0,0.83,0.68,1.5,1.5,1.5h6.056   c0.622,3.132,3.39,5.501,6.702,5.501c1.493,0,2.872-0.487,3.997-1.303l18.188,16.057c-0.583,1.006-0.922,2.169-0.922,3.413   c0,3.329,2.394,6.106,5.55,6.709v10.859c-2.667,0.51-4.786,2.573-5.379,5.21H38.315c-0.687-3.048-3.411-5.334-6.663-5.334   c-3.768,0-6.834,3.066-6.834,6.835c0,1.822,0.722,3.477,1.888,4.703L16.169,116.69c-0.477,0.678-0.315,1.613,0.362,2.091   c0.263,0.185,0.564,0.273,0.863,0.273c0.472,0,0.936-0.222,1.228-0.636l10.58-15.014c0.762,0.294,1.587,0.462,2.452,0.462   c3.252,0,5.978-2.286,6.663-5.335h14.771c0.586,2.603,2.661,4.64,5.279,5.182v3.697c0,0.828,0.672,1.5,1.5,1.5s1.5-0.672,1.5-1.5   v-1.042c0.034,0,0.067-0.002,0.101-0.002v-2.729c2.46-0.64,4.383-2.613,4.945-5.104h14.292c0.687,3.047,3.41,5.332,6.662,5.332   c3.769,0,6.834-3.065,6.834-6.834c0-2.564-1.422-4.802-3.517-5.971l3.612-9.567c0.29,0.05,0.59,0.07,0.9,0.07   c1.81,0,3.45-0.7,4.67-1.851l23.92,18.5c0.271,0.21,0.59,0.32,0.91,0.32c0.45,0,0.89-0.2,1.189-0.59   c0.511-0.65,0.391-1.59-0.27-2.1l-24.06-18.61c0.31-0.771,0.479-1.61,0.479-2.5c0-2.36-1.21-4.45-3.04-5.68l3.501-9.28   c0.453,0.095,0.922,0.146,1.403,0.146c3.253,0,5.978-2.287,6.663-5.336h20.673c0.82,0,1.5-0.67,1.5-1.5   C132.735,52.255,132.055,51.585,131.235,51.585z M31.652,51.587c-2.114,0-3.834-1.72-3.834-3.834s1.72-3.834,3.834-3.834   s3.834,1.72,3.834,3.834S33.766,51.587,31.652,51.587z M31.652,100.867c-2.114,0-3.834-1.72-3.834-3.834s1.72-3.835,3.834-3.835   s3.834,1.721,3.834,3.835S33.766,100.867,31.652,100.867z M72.107,54.277c1.767,0,3.243,1.207,3.686,2.836l-0.107,0.122   l0.182,0.141c0.047,0.238,0.074,0.483,0.074,0.735c0,2.114-1.72,3.834-3.834,3.834c-2.114,0-3.833-1.72-3.833-3.834   S69.993,54.277,72.107,54.277z M61.749,43.919c2.114,0,3.834,1.72,3.834,3.834s-1.72,3.834-3.834,3.834s-3.834-1.72-3.834-3.834   S59.635,43.919,61.749,43.919z M37.639,51.042c0.333-0.603,0.577-1.261,0.715-1.957h16.693c0.622,3.132,3.39,5.501,6.702,5.501   c1.479,0,2.846-0.477,3.965-1.279l0.929,0.716c-0.856,1.142-1.37,2.554-1.37,4.087c0,1.711,0.637,3.274,1.68,4.474l-3.776,4.266   c-1.009-0.589-2.179-0.932-3.429-0.932c-1.441,0-2.777,0.451-3.881,1.215L37.639,51.042z M55.915,72.754   c0-2.114,1.72-3.834,3.834-3.834s3.834,1.72,3.834,3.834s-1.72,3.834-3.834,3.834S55.915,74.868,55.915,72.754z M59.749,100.866   c-2.114,0-3.834-1.72-3.834-3.834s1.72-3.835,3.834-3.835s3.834,1.721,3.834,3.835S61.863,100.866,59.749,100.866z M91.199,97.033   c0,2.114-1.72,3.834-3.834,3.834s-3.834-1.72-3.834-3.834s1.72-3.835,3.834-3.835S91.199,94.919,91.199,97.033z M87.796,90.219   c-0.144-0.009-0.285-0.021-0.431-0.021c-3.254,0-5.978,2.287-6.663,5.337h-14.29c-0.56-2.493-2.485-4.471-4.947-5.111V79.361   c2.938-0.765,5.118-3.433,5.118-6.607c0-1.432-0.445-2.762-1.201-3.861l3.995-4.521c0.837,0.367,1.759,0.573,2.73,0.573   c2.154,0,4.076-1.004,5.329-2.567l11.759,9.086c-0.53,0.971-0.83,2.08-0.83,3.271c0,2.399,1.24,4.51,3.11,5.729L87.796,90.219z    M99.035,74.735c0,0.18-0.01,0.35-0.04,0.52c-0.14,1.061-0.72,1.99-1.56,2.58c-0.57,0.42-1.271,0.681-2.03,0.721   c-0.07,0.01-0.14,0.01-0.21,0.01c-1,0-1.92-0.391-2.61-1.03c-0.75-0.7-1.22-1.7-1.22-2.8c0-0.49,0.09-0.96,0.26-1.39   c0.38-0.98,1.141-1.761,2.101-2.161c0.42-0.17,0.88-0.27,1.359-0.28c0.04-0.01,0.07-0.01,0.11-0.01c1.05,0,2,0.42,2.689,1.11   C98.595,72.695,99.035,73.665,99.035,74.735z M103.899,56.921c-2.114,0-3.834-1.72-3.834-3.834c0-2.115,1.72-3.835,3.834-3.835   s3.834,1.72,3.834,3.835C107.733,55.201,106.013,56.921,103.899,56.921z"/><path d="M59.865,117.554c-0.828,0-1.5,0.672-1.5,1.5v3.881c0,0.828,0.672,1.5,1.5,1.5s1.5-0.672,1.5-1.5v-3.881   C61.365,118.226,60.693,117.554,59.865,117.554z"/><path d="M59.865,109.792c-0.828,0-1.5,0.672-1.5,1.5v3.882c0,0.828,0.672,1.5,1.5,1.5s1.5-0.672,1.5-1.5v-3.882   C61.365,110.464,60.693,109.792,59.865,109.792z"/><path d="M59.865,125.317c-0.828,0-1.5,0.672-1.5,1.5v3.881c0,0.828,0.672,1.5,1.5,1.5s1.5-0.672,1.5-1.5v-3.881   C61.365,125.989,60.693,125.317,59.865,125.317z"/></g><text x="0" y="156.73" fill="#000000" font-size="5px" font-weight="bold" font-family="'Helvetica Neue', Helvetica, Arial-Unicode, Arial, Sans-serif">Created by Viktor Fedyuk</text><text x="0" y="161.73" fill="#000000" font-size="5px" font-weight="bold" font-family="'Helvetica Neue', Helvetica, Arial-Unicode, Arial, Sans-serif">from the Noun Project</text></svg>